<svg width="44" height="49" viewBox="0 0 44 49" fill="none" xmlns="http://www.w3.org/2000/svg">
<rect width="44" height="49" fill="#574027"/>
<rect width="44" height="49" fill="url(#paint0_linear_1916_1479)"/>
<path d="M1.78 34L6.31 12.58H18.28L17.5 16.3H10L9.01 21.01H16L15.19 24.73H8.2L7.03 30.25H14.53L13.75 34H1.78ZM18.0398 34L22.5698 12.58H27.7898L32.7698 28.36H32.8898C32.9498 28.04 33.0098 27.65 33.0698 27.19C33.1498 26.73 33.2298 26.24 33.3098 25.72C33.4098 25.18 33.5098 24.65 33.6098 24.13C33.7098 23.61 33.7998 23.14 33.8798 22.72L36.0398 12.58H40.0598L35.5298 34H30.5198L25.2998 17.8H25.1498C25.1298 17.92 25.0898 18.21 25.0298 18.67C24.9698 19.11 24.8898 19.64 24.7898 20.26C24.7098 20.88 24.6098 21.52 24.4898 22.18C24.3898 22.82 24.2898 23.4 24.1898 23.92L22.0598 34H18.0398Z" fill="white"/>
<defs>
<linearGradient id="paint0_linear_1916_1479" x1="58.5" y1="-28" x2="-8.5" y2="69" gradientUnits="userSpaceOnUse">
<stop offset="0.123083" stop-opacity="0.93"/>
<stop offset="1" stop-opacity="0.41"/>
</linearGradient>
</defs>
</svg>
