<svg width="44" height="49" viewBox="0 0 44 49" fill="none" xmlns="http://www.w3.org/2000/svg">
<rect width="44" height="49" fill="#574027"/>
<rect width="44" height="49" fill="url(#paint0_linear_1916_1478)"/>
<path d="M4.78 34L9.31 12.58H21.22L20.44 16.3H13L11.83 21.82H18.76L17.95 25.54H11.02L9.25 34H4.78ZM20.7175 34L25.2475 12.58H30.4975C32.6375 12.58 34.3275 13.04 35.5675 13.96C36.8275 14.88 37.4575 16.38 37.4575 18.46C37.4575 19.58 37.2475 20.57 36.8275 21.43C36.4275 22.29 35.8675 23.01 35.1475 23.59C34.4475 24.15 33.6475 24.59 32.7475 24.91L36.5575 34H31.6975L28.6675 25.78H26.9275L25.1875 34H20.7175ZM28.8475 22.09C29.4875 22.09 30.0575 22.02 30.5575 21.88C31.0575 21.74 31.4775 21.53 31.8175 21.25C32.1775 20.97 32.4475 20.62 32.6275 20.2C32.8075 19.76 32.8975 19.26 32.8975 18.7C32.8975 17.9 32.6675 17.3 32.2075 16.9C31.7475 16.5 31.0175 16.3 30.0175 16.3H28.9375L27.7075 22.09H28.8475Z" fill="white"/>
<defs>
<linearGradient id="paint0_linear_1916_1478" x1="58.5" y1="-28" x2="-8.5" y2="69" gradientUnits="userSpaceOnUse">
<stop offset="0.123083" stop-opacity="0.93"/>
<stop offset="1" stop-opacity="0.41"/>
</linearGradient>
</defs>
</svg>
