<svg width="195" height="195" viewBox="0 0 195 195" fill="none" xmlns="http://www.w3.org/2000/svg">
<mask id="mask0_1941_725" style="mask-type:alpha" maskUnits="userSpaceOnUse" x="0" y="0" width="195" height="195">
<circle cx="97.1803" cy="97.1803" r="97.1803" fill="#D9D9D9"/>
</mask>
<g mask="url(#mask0_1941_725)">
<path d="M150.456 177.412C150.01 177.73 149.5 178.049 149.054 178.368C148.544 178.686 148.098 179.005 147.588 179.26C147.142 179.515 146.76 179.77 146.314 180.025C146.25 180.088 146.186 180.088 146.123 180.152C144.657 181.044 143.127 181.873 141.598 182.637C141.152 182.892 140.642 183.147 140.196 183.338C140.196 183.338 140.132 183.402 140.069 183.402C139.559 183.657 139.049 183.912 138.539 184.167C137.52 184.676 136.436 185.123 135.417 185.569C134.907 185.824 134.333 186.015 133.824 186.206C133.314 186.397 132.74 186.652 132.23 186.843C131.721 187.034 131.147 187.289 130.637 187.48C130.637 187.48 130.637 187.48 130.574 187.48C130.064 187.672 129.49 187.863 128.98 188.054C127.833 188.436 126.623 188.819 125.476 189.201C125.093 189.328 124.647 189.456 124.265 189.583C123.054 189.966 121.843 190.284 120.632 190.539C120.186 190.667 119.74 190.73 119.23 190.858C118.083 191.113 116.873 191.368 115.726 191.623C115.471 191.686 115.279 191.686 115.025 191.75C114.642 191.814 114.196 191.877 113.814 191.941C113.24 192.005 112.73 192.132 112.157 192.196C111.902 192.26 111.647 192.26 111.392 192.324C111.074 192.387 110.691 192.451 110.309 192.451C109.289 192.578 108.206 192.706 107.186 192.833C106.868 192.897 106.485 192.897 106.167 192.961H106.103C105.657 193.025 105.211 193.025 104.765 193.088C104.319 193.152 103.873 193.152 103.427 193.152C103.172 193.152 102.853 193.216 102.598 193.216C102.088 193.216 101.642 193.279 101.196 193.279C100.559 193.279 99.9853 193.343 99.3481 193.343C98.7108 193.343 98.1373 193.343 97.5 193.343C97.054 193.343 96.6079 193.343 96.1618 193.343C69.2697 192.961 45.1177 181.554 27.8481 163.456C27.8481 163.456 27.8481 163.392 27.7844 163.392C25.8726 161.672 27.5295 152.495 35.2402 146.696C44.9265 139.368 68.1226 134.779 68.1226 134.779C68.1226 134.779 77.1079 133.314 110.436 140.26C129.936 144.338 144.784 150.265 153.069 166.324C154.789 169.637 156.51 174.735 150.456 177.412Z" fill="white"/>
<path d="M110.627 139.559C122.863 142.044 135.926 144.721 145.995 152.814C149.373 155.554 151.603 159.569 153.451 163.456C154.343 165.368 155.235 167.343 155.936 169.446C156.319 170.848 156.892 172.441 156.574 174.098C156.51 174.544 156.127 175.118 155.809 175.436C154.343 176.902 152.75 177.794 151.157 178.941C141.789 185.441 131.02 190.029 119.868 192.451C95.0147 197.868 68.1226 193.662 46.2647 180.598C39 176.201 32.3088 170.848 26.5735 164.539C25.9363 163.775 25.9363 162.5 25.9363 161.672C26 159.76 26.5098 157.912 27.1471 156.191C28.6765 152.24 30.652 148.289 34.0294 145.549C36.451 143.892 39.0637 142.49 41.7402 141.343C50.152 137.775 59.0098 135.289 68.1226 134.27C68.8873 134.206 69.0147 135.289 68.25 135.417C59.5196 137.201 50.8529 139.877 42.7598 143.51C39.8284 144.976 36.7059 146.25 34.348 148.544C32.1177 150.966 30.5245 153.961 29.25 157.02C28.4216 158.868 27.848 161.799 28.1029 163.265C32.1177 168.044 36.8333 172.25 41.9314 175.882C69.8431 195.382 112.221 196.657 141.917 180.407C144.593 178.941 147.206 177.284 149.691 175.564C150.902 174.735 152.176 174.034 153.132 173.078C153.196 173.015 153.132 173.078 153.132 173.142C153.132 173.206 153.069 173.27 153.069 173.27C153.132 172.505 152.877 171.485 152.559 170.466C151.412 166.77 149.564 162.882 147.588 159.505C144.466 154.471 139.176 151.284 133.824 148.735C130.127 147.015 126.24 145.677 122.289 144.402C118.338 143.127 114.324 142.044 110.309 141.088C109.289 140.833 109.608 139.368 110.627 139.559Z" fill="black"/>
<path d="M171.613 216.921H10.4512C10.4512 216.921 13.0639 190.666 23.0051 169.701C26.6374 162.054 27.8482 150.838 35.0492 145.931C42.4414 140.897 58.1816 136.882 63.662 136.245C66.7208 135.863 66.0198 135.608 68.1865 135.034C68.8874 136.946 75.961 155.681 92.912 162.563C107.505 168.49 116.172 164.539 117.51 157.975C118.338 153.769 115.726 146.887 114.387 144.657C113.623 144.019 113.113 143.063 112.858 142.108L112.348 140.005C113.495 139.75 114.579 139.431 115.726 139.113C116.299 139.24 116.936 139.176 117.446 139.495C122.799 142.426 138.922 146.568 147.334 155.426C150.647 158.867 155.809 171.103 156.637 179.068C158.995 200.926 171.613 216.921 171.613 216.921Z" fill="white"/>
<path d="M172.505 217.304C124.711 217.431 57.6083 218.005 10.5152 217.814C9.94165 217.814 9.49557 217.304 9.55929 216.73C10.1328 212.206 10.8975 207.809 11.7897 203.348C14.1475 191.176 17.7162 179.196 23.0691 168.044C25.2358 162.819 26.3191 157.338 28.9318 152.24C30.4613 149.181 32.7554 146.25 35.8142 144.529C40.7211 141.598 46.1377 139.75 51.5544 138.093C54.8044 137.137 58.1181 136.245 61.4318 135.608C63.0887 135.225 64.7456 135.289 66.275 134.652C67.1034 134.333 68.6965 133.377 69.2064 134.588C73.8583 146.632 82.8436 158.039 95.3975 162.309C101.898 164.667 113.177 166.642 116.491 158.676C117.51 155.681 116.554 152.431 115.662 149.436C115.152 147.907 114.515 146.314 113.75 145.039L113.942 145.23C112.795 144.274 112.157 142.745 111.966 141.343L111.648 140.069C111.52 139.559 111.839 139.049 112.349 138.922C113.496 138.73 114.643 138.348 115.79 138.029C116.427 138.029 117.447 138.157 118.275 138.603C125.285 141.853 133.25 144.211 139.942 148.289C143.701 150.52 147.525 153.132 149.947 156.892C154.407 164.348 157.275 172.824 158.103 181.426C159.888 193.725 164.858 205.515 171.996 215.647L172.25 215.966L172.378 216.093L172.442 216.157C172.442 216.157 172.442 216.093 172.505 216.284C172.569 216.667 172.569 217.113 172.505 217.304ZM170.785 216.475C170.657 216.667 170.657 217.113 170.785 217.304C170.912 217.431 170.849 217.368 170.849 217.368L170.785 217.304L170.657 217.113L170.402 216.794C166.388 210.676 163.074 204.113 160.652 197.294C158.741 192.26 157.339 187.034 156.574 181.681C156.319 179.77 156 177.221 155.554 175.373C154.089 169.255 151.731 163.137 148.353 157.848C147.27 156.127 145.677 154.789 144.084 153.515C139.049 149.691 133.123 147.333 127.26 145.039L121.27 142.809C119.295 142.044 116.937 141.216 115.726 140.005H116.236C115.089 140.387 113.942 140.706 112.795 140.961L113.496 139.814L113.814 141.088C114.069 142.235 114.324 143.255 115.216 144.02C115.28 144.083 115.344 144.147 115.407 144.211C117.128 147.333 118.148 150.583 118.657 154.088C119.741 160.142 115.917 164.922 110.054 166.069C101.961 167.662 92.275 164.157 85.5838 159.632C77.172 153.706 71.1181 144.912 67.422 135.417L68.5691 135.99C67.9956 136.181 67.6132 136.373 67.0397 136.627C66.4662 136.946 65.7652 137.137 65.1279 137.265C65.1916 137.647 65.0005 136.5 65.2554 138.029C64.0446 138.157 63.0887 138.221 61.9416 138.475C58.6916 138.985 55.4416 139.75 52.2554 140.642C47.9858 141.789 43.7799 143.191 39.8289 145.039C37.8534 145.995 35.9416 147.015 34.476 148.353C32.9465 149.691 31.7358 151.475 30.7162 153.387C27.7211 159.186 26.2554 166.132 23.1965 171.995C16.824 186.206 13.2554 201.691 11.5348 217.176L10.5789 216.157C56.8436 215.966 123.755 216.221 170.785 216.475Z" fill="black"/>
<path d="M41.9953 216.921L39.1277 193.279" stroke="#544D4D" stroke-width="3" stroke-miterlimit="10" stroke-linecap="round" stroke-linejoin="round"/>
<path d="M153.324 185.25C153.324 185.25 151.412 189.902 151.986 194.554C152.559 199.206 154.216 206.024 151.858 216.922" stroke="#544D4D" stroke-width="3" stroke-miterlimit="10" stroke-linecap="round" stroke-linejoin="round"/>
<path d="M116.617 156.51C115.279 163.073 106.612 167.024 92.0191 161.098C76.8524 154.98 70.2887 140.387 68.6318 136.054C77.6171 119.23 71.372 107.569 71.372 107.569C92.0828 105.784 110.181 130 110.181 130L112.985 141.98C113.24 143 113.749 143.892 114.514 144.529C115.852 146.887 117.446 152.304 116.617 156.51Z" fill="white"/>
<path d="M68.3134 136.245C69.5242 134.397 70.2889 132.23 70.7987 130.127C71.7546 125.73 72.0732 121.27 72.137 116.809V115.152C71.9458 113.495 71.3723 111.774 70.735 110.245C69.9066 108.206 72.9017 106.931 73.8576 108.971C73.985 109.225 73.985 109.672 73.985 109.926C74.1762 118.593 74.5585 129.745 69.0781 136.946C68.6958 137.328 67.9311 136.755 68.3134 136.245Z" fill="black"/>
<path d="M110.882 129.873C111.838 130.446 112.156 131.211 112.284 131.976C112.666 133.505 112.539 135.162 112.921 136.755C113.24 138.284 114.196 139.75 114.451 141.343C114.769 143 115.725 146.505 116.107 148.226C116.235 148.608 115.98 149.054 115.534 149.118C115.279 149.181 115.088 149.118 114.897 148.99C114.068 148.289 113.686 147.588 113.176 146.696C112.348 145.167 111.774 143.765 111.264 142.044C110.818 140.515 111.009 138.858 110.627 137.265C110.308 135.735 109.416 134.27 109.098 132.676C108.906 131.912 108.843 131.083 109.416 130.127C109.799 129.745 110.436 129.618 110.882 129.873Z" fill="black"/>
<path d="M115.47 146.696C103.299 146.059 93.3577 142.235 83.6714 124.966C91.8282 132.167 101.451 134.907 111.583 136.181L112.921 142.044C113.176 143.064 114.706 146.059 115.47 146.696Z" fill="black"/>
<path d="M114.961 144.338C117.128 148.417 118.402 153.515 117.064 158.039C116.044 161.225 113.113 163.583 109.927 164.475C102.534 166.451 93.9952 163.328 87.4314 159.824C79.3383 155.299 73.3481 147.716 69.5246 139.431C69.2697 138.794 70.1618 138.284 70.5442 138.922C71.8824 141.598 73.4118 144.211 75.1324 146.569C76.853 148.99 78.8285 151.221 81.0589 153.196C87.5589 159.059 96.353 162.691 105.147 162.691C114.196 162.436 117.637 157.657 115.534 148.863C115.216 147.461 114.706 145.995 114.005 144.784C113.623 144.274 114.578 143.701 114.961 144.338Z" fill="black"/>
<path d="M139.622 67.8039C140.769 73.1568 136.946 78.8921 136.946 93.1666C136.946 107.76 134.269 123.627 123.245 134.652C113.75 144.147 102.853 143.765 90.0438 133.76C88.2595 132.358 82.0144 127.642 80.4213 126.049C78.5732 124.201 77.5536 122.863 76.6615 121.461C75.8968 120.186 76.0879 112.794 75.0046 111.073C72.2007 106.422 71.6272 111.456 67.9948 107.377C62.9605 101.897 56.9066 90.8725 59.9017 71.3725C64.7448 39.7646 89.7889 36.0686 108.333 39.5735C127.005 43.1421 136.563 53.7205 139.622 67.8039Z" fill="white"/>
<path d="M71.1811 113.049C69.7154 110.627 67.8674 108.461 66.1468 106.23C64.4262 103.873 63.0242 101.387 61.8772 98.7107C55.3772 82.9705 56.333 62.3872 67.8674 49.1323C75.7693 40.0833 88.2595 37.0882 99.7301 37.7254C111.201 38.4264 123.117 41.3578 131.593 49.6421C136.5 54.4215 139.622 60.7941 141.024 67.4215C141.47 69.5245 141.152 71.8186 140.642 73.7941C139.176 79.3382 137.774 84.6274 137.647 90.3627C137.71 98.9019 137.456 107.632 134.97 115.853C133.186 121.333 131.083 126.814 127.769 131.593C124.328 136.436 119.166 140.323 113.24 141.471C101.323 143.892 90.1713 136.373 82.2693 128.216C81.9507 127.833 82.3968 127.387 82.7791 127.642C87.3036 131.083 91.9556 134.27 96.9899 136.436C111.519 143.127 123.563 136.946 129.936 122.926C135.289 112.73 136.818 101.706 136.372 90.299C136.372 87.4313 136.5 84.5637 136.882 81.696C137.264 77.5539 138.666 73.4117 138.603 69.3333C137.519 62.7058 134.46 56.3333 129.872 51.4264C118.975 39.8921 98.0732 36.5147 83.4164 41.7401C66.1468 47.8578 61.4948 65.2549 60.5389 81.8872C59.9017 91.8284 62.833 101.578 70.3526 108.397L73.3477 111.52C74.3674 112.922 72.2007 114.578 71.1811 113.049Z" fill="black"/>
<path d="M78.7008 92.7843C78.7008 92.7843 76.7253 83.2254 67.4214 84.3725C59.392 85.3921 56.588 104.637 74.8135 109.99" fill="white"/>
<path d="M73.985 101.642C72.5193 100.814 71.4997 99.4117 71.436 97.6911C71.4997 96.4166 71.6909 94.9509 71.3723 93.6764C71.1811 92.4656 69.9066 92.147 68.9507 92.2107C67.9311 92.4019 67.2938 93.6764 67.1027 94.696C67.1027 94.7598 67.0389 94.9509 67.0389 95.0147C66.9752 95.3333 66.4654 95.3333 66.338 95.0147C65.5095 92.5294 67.3576 89.7892 70.034 90.1078C73.7938 90.3627 74.3037 94.3137 73.6027 97.3088C73.2203 98.5833 73.7301 99.7303 74.4311 100.814L74.5586 101.005C74.8772 101.387 74.3674 101.897 73.985 101.642Z" fill="black"/>
<path d="M78.3824 92.8479C76.9167 89.0881 73.7304 85.5195 69.4608 85.5832C69.0785 85.5195 68.4412 85.647 68.0589 85.647C66.9755 85.7107 66.0834 86.093 65.255 86.8577C61.1765 90.9362 61.8775 98.1372 65.1912 102.662C66.3383 104.255 67.804 105.657 69.4608 106.804C71.1177 107.951 72.9657 108.843 74.9412 109.608C75.3873 109.735 75.1961 110.436 74.7501 110.372C70.4804 109.48 66.402 107.377 63.5981 103.872C59.2648 98.647 58.3726 89.9166 63.5344 84.8185C64.6814 83.7989 66.2746 83.0342 67.8677 83.0342C68.3775 83.0342 69.1422 82.9068 69.652 83.0342C72.3285 83.1617 74.8775 84.4999 76.5344 86.6028C78 88.3871 78.8285 90.5538 79.0834 92.7205C79.0834 93.1028 78.5099 93.2303 78.3824 92.8479Z" fill="black"/>
<path d="M116.49 118.211C114.96 119.549 112.666 120.377 109.544 119.103C108.078 118.529 106.931 117.382 106.039 116.108C106.103 116.108 109.289 113.814 116.49 118.211Z" fill="white"/>
<path d="M96.6716 36.4509C59.0098 35.6862 55.1863 67.2303 57.5442 86.0293C60.1569 106.931 72.6471 115.152 72.6471 115.152L73.4755 109.608C73.4755 109.608 70.4804 108.588 67.6128 106.485C57.6716 98.9656 60.7304 85.2646 67.4853 84.4362C74.2402 83.544 77.1716 88.4509 78.1912 91.1274C81.7598 79.3382 76.7255 76.4068 81.7598 68.0588C97.5 51.044 108.461 62.5146 116.172 64.745C124.583 67.1029 130.127 64.4264 133.25 61.4313C135.48 59.2646 138.348 63.3431 138.348 63.3431C138.348 63.3431 134.206 37.2156 96.6716 36.4509Z" fill="black"/>
<path d="M183.657 53.7206C222.338 128.216 154.343 212.27 73.2843 191.75C36.897 182.701 7.64705 151.157 1.59312 114.132C-5.28923 77.299 11.3431 37.7255 42.4412 16.8873C85.0735 -12.4265 144.147 -2.67648 174.672 39.2549C174.863 39.4461 174.799 39.7647 174.544 39.9559C174.353 40.1471 174.034 40.0833 173.843 39.8284C169.637 34.4118 164.858 29.5049 159.632 25.1078C151.029 17.7794 140.961 12.0441 130.319 8.15686C76.1519 -11.4706 16.6961 21.1569 4.84312 77.8088C-8.53923 141.279 45.4363 199.716 109.799 190.985C159.441 184.74 196.338 138.922 192.26 89.0882C191.368 77.0441 188.181 65.1274 182.892 54.1667C182.765 53.9755 182.892 53.7206 183.083 53.5931C183.274 53.4657 183.529 53.5294 183.657 53.7206Z" fill="black"/>
</g>
</svg>
